<?xml version="1.0" standalone="no"?>
<!DOCTYPE svg PUBLIC "-//W3C//DTD SVG 20010904//EN"
 "http://www.w3.org/TR/2001/REC-SVG-20010904/DTD/svg10.dtd">
<svg version="1.0" xmlns="http://www.w3.org/2000/svg" 
 width="3000.000000pt" height="3000.000000pt" viewBox="0 0 3000.000000 3000.000000"
 preserveAspectRatio="xMidYMid meet">

<g transform="translate(0.000000,3000.000000) scale(0.100000,-0.100000)"
fill="#022074" stroke="none">
<path d="M14305 24270 c-244 -13 -562 -38 -770 -61 -2478 -274 -4551 -1321
-6068 -3064 -1295 -1487 -2111 -3433 -2332 -5560 -64 -625 -72 -1391 -19
-2030 175 -2132 959 -4111 2236 -5642 349 -419 802 -866 1215 -1200 1018 -824
2221 -1416 3548 -1747 1296 -323 2791 -409 4080 -235 1538 207 3008 768 4333
1656 507 340 935 695 1408 1167 273 274 471 491 679 746 745 914 1335 1981
1701 3076 78 231 94 341 76 503 -37 320 -217 583 -484 705 -130 60 -192 71
-383 70 -156 0 -178 -3 -259 -28 -237 -72 -420 -215 -521 -408 -19 -36 -67
-160 -106 -275 -404 -1189 -1043 -2225 -1909 -3094 -398 -400 -803 -730 -1308
-1068 -1103 -737 -2393 -1188 -3767 -1315 -412 -39 -1035 -45 -1450 -16 -1417
100 -2614 458 -3699 1108 -1599 958 -2785 2542 -3335 4457 -300 1047 -406
2179 -306 3280 188 2057 1065 3912 2460 5208 1331 1235 3058 1915 5100 2007
1824 82 3542 -387 5043 -1377 724 -477 1434 -1151 1983 -1883 515 -685 915
-1446 1204 -2290 39 -114 83 -223 107 -264 45 -76 155 -198 228 -251 77 -57
203 -114 307 -141 89 -23 112 -25 243 -21 153 5 228 21 353 73 233 98 408 306
478 569 32 119 32 326 0 450 -26 100 -110 345 -194 565 -629 1649 -1687 3084
-3122 4236 -460 370 -1096 767 -1710 1068 -1182 581 -2392 907 -3745 1012
-240 18 -1035 27 -1295 14z"/>
<path d="M14592 20699 c-2044 -90 -3859 -1174 -4937 -2949 -173 -285 -218
-413 -217 -625 1 -265 103 -485 306 -663 69 -60 228 -143 322 -166 95 -24 231
-35 315 -26 289 33 515 182 673 446 358 599 913 1170 1497 1541 628 400 1250
614 1952 672 188 16 576 14 768 -5 914 -86 1768 -453 2449 -1051 154 -135 447
-434 558 -568 556 -675 884 -1468 984 -2380 20 -186 17 -771 -5 -960 -111
-934 -461 -1750 -1034 -2411 -110 -128 -400 -420 -523 -528 -654 -577 -1445
-919 -2363 -1023 -217 -25 -716 -24 -917 0 -394 49 -733 134 -1080 271 -241
96 -708 351 -964 526 -495 340 -961 843 -1312 1417 -36 59 -84 129 -107 157
-60 72 -159 150 -246 194 -136 70 -230 92 -392 93 -292 0 -536 -120 -711 -351
-114 -150 -170 -315 -170 -505 1 -233 61 -373 350 -815 461 -705 1089 -1337
1807 -1817 625 -417 1578 -769 2420 -892 322 -47 444 -55 850 -55 384 -1 482
4 775 40 1558 189 3008 996 3992 2219 868 1079 1366 2413 1406 3765 19 634
-37 1177 -183 1760 -234 938 -677 1801 -1312 2561 -638 764 -1559 1401 -2544
1760 -606 221 -1219 340 -1894 369 -251 11 -248 11 -513 -1z"/>
</g>
</svg>
